<svg xmlns="http://www.w3.org/2000/svg" viewBox="0 0 64 64"><title>broom-sweeping-clean-cleaning</title><g id="outline"><path style="fill:#35455CFF;" d="M58.707,2.293a1,1,0,0,0-1.414,0l-27,27-2.715,2.715A34.373,34.373,0,0,0,3.45,42.136L2.293,43.293a1,1,0,0,0,0,1.414l17,17a1,1,0,0,0,1.38.033A34.671,34.671,0,0,0,31.992,36.422l2.715-2.715,27-27a1,1,0,0,0,0-1.414ZM20.023,59.608,18.914,58.5l3.793-3.793-1.414-1.414L17.5,57.086,15.914,55.5l3.793-3.793-1.414-1.414L14.5,54.086,12.914,52.5l3.793-3.793-1.414-1.414L11.5,51.086,9.914,49.5l3.793-3.793-1.414-1.414L8.5,48.086,6.914,46.5l3.793-3.793L9.293,41.293,5.5,45.086,4.414,44l.45-.45A32.458,32.458,0,0,1,15.884,36.3L27.7,48.116A32.608,32.608,0,0,1,20.023,59.608Zm8.43-13.569L17.965,35.551c.556-.177,1.116-.343,1.682-.49l9.293,9.293C28.792,44.92,28.631,45.482,28.453,46.039Zm1-4-7.48-7.48A33.3,33.3,0,0,1,27.588,34L30,36.413A32.41,32.41,0,0,1,29.449,42.035ZM31,34.586,29.414,33,31,31.414,32.586,33Zm3-3L32.414,30,58,4.414,59.586,6Z"/></g></svg>