<?xml version="1.0" encoding="UTF-8"?>
<svg id="_Слой_2" data-name=" Слой 2" xmlns="http://www.w3.org/2000/svg" viewBox="0 0 219.93 92.4">
  <defs>
    <style>
      .cls-1, .cls-2 {
        fill: #1e75bb;
      }

      .cls-3 {
        fill: #1d1d1b;
      }

      .cls-2 {
        font-family: Times-Roman, Times;
        font-size: 35.79px;
        isolation: isolate;
      }
    </style>
  </defs>
  <g id="Layer_1" data-name="Layer 1">
    <g>
      <g>
        <path class="cls-3" d="M46.6,34.3l-10,8L7.7,65.6h9.1l25.2,25c2.4,2.4,6.4,2.4,8.8,0l25.2-25h9.7l-31.5-25.1-7.6-6.2h0Zm-1.4,22.1h-6.2v-5.9h6.2v5.9Zm0-8.2h-6.4c0-5.5,6.3-6.9,6.3-6.9l.1,6.9Zm2.3-6.9s6.2,1.5,6.2,6.9h-6.2v-6.9Zm6.3,15.1h-6.2v-5.9h6.2v5.9Z"/>
        <path class="cls-1" d="M39,28.2c-2.9-2.3-5.5-.3-6.6,1l.1,.1c.6,.5,.7,1.4,.2,2l-.9,1.1c-.5,.6-1.4,.7-2,.2l-3.9-3.1c-.6-.5-.7-1.4-.2-2l.9-1.1c.4-.5,1.1-.6,1.6-.4l1.6-1.9s-1-4,1.9-7.5c2.9-3.6,13.3-5.8,13.3-5.8l.9,1.8s-2.5,2.1-4.2,4.3c-1.7,2.2,.2,6,.2,6l43.2,34.3,6.3-6.2c2.4-2.4,2.4-6.3,0-8.8L51,1.8c-2.4-2.4-6.4-2.4-8.8,0L1.8,41.8c-2.4,2.4-2.4,6.3,0,8.7l6.5,6.4L41.7,30.2l-2.7-2h0Z"/>
        <path class="cls-3" d="M39.1,52.2c0,1.5,.1,3.1,.5,4.5,.1,.4,.3,.7,.6,1,.3,.2,.8,.3,1.1,.2,.8-.2,1.4-.9,1.2-1.7-.2-1-.4-2-.4-3v-.7c0-.4-.1-.8-.3-1.1-.2-.3-.6-.5-1-.5-.8-.1-1.7,.5-1.7,1.3h0Z"/>
        <path class="cls-3" d="M41.4,54.9c.7-.4,1.3-.9,1.8-1.6,.2-.3,.4-.7,.6-1,.3-.6,.3-1.3,.1-1.9s-1-1.1-1.7-1.1c-.5,0-1,.1-1.5,.3-.4,.2-.8,.4-1.1,.7-.6,.5-.9,1.2-.8,2,.1,.5,.3,.9,.6,1.4,.3,.5,.5,.9,.8,1.3,.2,.3,.6,.5,1,.5s.8-.1,1.1-.3c.6-.6,.7-1.4,.2-2.1-.1-.2-.3-.4-.4-.5l.2,.3c-.3-.4-.5-.9-.7-1.3l.1,.4v0l-.1,.4v-.1l-.2,.3,.1-.1-.3,.3c.1-.1,.3-.2,.4-.3l-.3,.2c.3-.2,.5-.3,.8-.4l-.4,.1c.1,0,.2,0,.3-.1h-.2l-.4-.1h.1l-.3-.2s.1,0,.1,.1l-.3-.3,.1,.1-.2-.3s0,.1,.1,.1l-.1-.4v-.1l.1-.4c-.1,.2-.1,.4-.2,.6l.2-.3c-.2,.3-.3,.6-.6,.8l.3-.3c-.2,.2-.5,.5-.8,.7l.3-.2c-.1,0-.1,.1-.2,.1-.3,.2-.6,.5-.8,.8-.1,.3-.1,.8,.1,1.2s.5,.6,.8,.8c.3,.2,1,.1,1.3-.1h0Z"/>
        <path class="cls-3" d="M41.6,55.4c-1.1-1-2.2-2.2-3.1-3.3l-2,2.2c1.3,.7,2.6,1.6,3.7,2.6l-.3-.3c.1,0,.1,.1,.2,.1,.2,.2,.4,.3,.6,.4,.3,.1,.7,.1,1,0,.5-.2,1-.7,1-1.3,.1-1.3,0-2.5-.1-3.8-.1-.8-1-1.4-1.7-1.2-.8,.2-1.3,.9-1.2,1.7,.1,.5,.1,1.1,.2,1.6v1.4l2.6-.8c-1.3-1.2-2.6-2.2-4.1-3-.3-.2-.7-.3-1.1-.2-.3,.1-.6,.2-.8,.5-.5,.5-.5,1.4,0,2,1,1.2,2,2.3,3.1,3.3,.3,.3,.6,.5,1,.5s.8-.1,1.1-.3c.3-.2,.5-.6,.5-1s-.2-.9-.6-1.1h0Z"/>
        <path class="cls-3" d="M43.8,52c-.4,1.5-.7,3.1,.5,4.4,1.2,1.3,2.7,1.1,4,.3,2.3-1.5,3.8-4,4.2-6.6,.2-1.1-1.1-2-2.1-1.5-1.6,.8-2.5,2.3-2.9,4s-.6,3.6,.6,5,3.1,1.6,4.6,1c1.7-.7,2.8-2.3,3.6-3.9,.5-1,.1-2.1-1.1-2.3-1.4-.2-2.8,.4-3.6,1.6-.7,1,.2,2.7,1.5,2.3,2-.6,3.6-2.2,3.6-4.4,0-1.1-1.1-2-2.1-1.5-1.5,.7-2.8,1.9-3.7,3.3-1,1.6,1.4,3.3,2.4,1.7,.9-1.3,1.1-3.9-1.1-4.1-2-.2-3.5,2.1-4.1,3.7-.4,1.1,.5,2.2,1.7,2,2.3-.4,3.9-3.1,2.9-5.3-.7-1.5-2.5-1.8-3.6-.5-.9,1-1.5,2.3-1.9,3.5s-.9,2.9-.1,4c1,1.3,2.7,.8,3.6-.4,1.5-2,2-5.5,.4-7.6-1.8-2.4-5.2-1.4-6.9,.5-.8,.9-1.7,2-1.4,3.3,.2,1.4,1.8,2.2,3.1,1.6,2.7-1.2,1.8-4.7,0-6.2s-5.4-2.5-6.5,.3c-.5,1.3-.1,3,.5,4.2s1.9,2.9,3.5,2.6c1.8-.3,1.9-2.4,1.9-3.8,0-1.7-.3-3.3-1-4.9-.4-1-2-1.2-2.6-.2-1.4,2.7-2.1,5.6-1.9,8.5,.1,1.4,.3,2.9,1.6,3.7,1.3,.8,2.8,.2,3.4-1.2s.7-3,.7-4.5-.1-3.1-.7-4.5c-.6-1.3-1.7-2.3-3.1-2.5-.7-.1-1.4,0-2,.4-.3,.2-.5,.4-.8,.6-.1,.1-.3,.3-.4,.4,.2,.1,.3,0,.3-.1l.6,.4h0c.1,.3,.1,.5,.1,.8,.1-.5,.4-1.1,.6-1.6,.2-.6,.3-1.2,.5-1.8,.2-1.2,.3-2.4,.3-3.6,0-.8-.5-1.5-1.3-1.6s-1.6,.5-1.6,1.3c-.1,2,.1,4,.6,5.9,.4,1.6,2.7,1.6,3-.1,.3-2.6,.8-5.1,1.5-7.6l-2.9-.3,.9,5.4c.3,1.6,2.2,1.5,2.9,.3,.7-1.2,1.1-2.5,1.5-3.8l-2.9-.7c-.2,3.7-.3,7.2-.2,10.9,0,.8,.5,1.5,1.3,1.6,.7,.1,1.6-.5,1.6-1.3l-.1-9.5-2.8,.5,1.6,4.6c.5,1.5,2.7,.8,2.8-.5,.2-1.8,.2-3.5,0-5.2-.2-1.2-2-1.7-2.7-.6-1.2,2-2.2,4.1-2.8,6.3l2.9,.7c0-2.9,.1-5.7,.5-8.5,.3-1.9-2.7-2.2-3-.3-.4,2.7-.8,5.3-1.1,7.9-.1,.8,.6,1.6,1.3,1.6,2.3,.1,4.3-1.1,5.5-2.9,1.4-2,1.7-4.5,1.9-6.7l-3-.3-.4,7.2,3-.1c-.1-1.6,0-3.3,.4-4.9l-2.9-.3,1.2,6.6c.3,1.7,2.8,1.5,3-.1l.6-5.1-3,.1,.8,5.7c.2,1.7,2.8,1.5,3-.1l.4-4.2-2.6,.8,1.8,2.4c.8,1.1,2.5,.4,2.6-.8l.2-2-2.8,.5c.7,1.4,1.6,3.2,.4,4.6l2.6,.2c-.3-.8-.2-1.8-.3-2.7-.1-.9-.4-1.8-.7-2.7-.6-1.7-1.6-3.2-2.8-4.5-1.3-1.4-3.6,.5-2.3,1.9,1.1,1.2,2,2.5,2.5,4,.5,1.7,.3,3.5,1,5.2,.5,1.1,1.9,1,2.6,.2,2-2.2,1-5.2-.2-7.5-.6-1.3-2.7-1-2.8,.5l-.2,2,2.6-.8-1.8-2.4c-.8-1.1-2.5-.4-2.6,.8l-.4,4.2,3-.1-.8-5.7c-.2-1.7-2.8-1.5-3,.1l-.6,5.1,3-.1-1.2-6.6c-.2-1.4-2.5-1.8-2.9-.3-.5,2.1-.7,4.3-.5,6.4,.1,1.7,2.9,1.5,3-.1l.4-7.2c.1-1.9-2.8-2.2-3-.3-.2,1.7-.3,3.4-1.1,4.9-.6,1.1-1.7,2.2-3.1,2.1l1.3,1.6c.4-2.7,.7-5.3,1.1-7.9l-3-.3c-.4,2.8-.6,5.7-.5,8.5,0,.7,.4,1.4,1.2,1.6,.7,.1,1.5-.2,1.7-.9,.6-2,1.4-3.9,2.5-5.7l-2.7-.6c.2,1.5,.2,3,0,4.5l2.8-.5-1.6-4.6c-.5-1.4-2.8-.9-2.8,.5l.1,9.5,3,.3c-.1-3.7,0-7.2,.2-10.9,.1-1.6-2.4-2.3-2.9-.7-.4,1.3-.9,2.5-1.5,3.8l2.9,.3-.9-5.4c-.2-1.4-2.5-1.7-2.9-.3-.7,2.8-1.3,5.6-1.7,8.3l3-.1c-.4-1.7-.7-3.4-.6-5.1l-3-.3c.1,1.4-.1,2.8-.4,4.2-.4,1.2-1.4,2.7-.6,3.9,.7,1.1,2.3,1.2,3.3,.5,.3-.2,.7-.9,1.1-.9s.7,.5,.8,.8c.5,1.1,.5,2.6,.4,3.8-.1,.7-.1,1.5-.3,2.2,0,.2-.1,.3-.1,.4-.2,.4,.1,.3,.8-.1v-.4c-.5-2.5,0-5.3,1.2-7.5l-2.6-.2c.4,.9,.6,1.8,.7,2.8,.1,.5,.2,2-.1,2.3l.6-.5-.2,.1,.8-.1s-.4-.6-.5-.7c-.2-.3-.4-.7-.5-1.1-.1-.3-.2-.7-.1-1,0,.1-.2,.1-.1,.1h.4c.6,.1,1.3,.5,1.7,1.1,.2,.2,.3,.5,.4,.8v.3q0-.1,0,0c-.2,.2,.1,.2,.7-.1l.5,.6c0,.1-.2,.2,0,0l.2-.4c.2-.3,.6-.7,.9-.9,.5-.4,1.2-.8,1.8-.3,.5,.4,.4,1.3,.4,1.9-.1,.6-.3,2.1-.9,2.3l.8-.1h-.2c.2,.1,.5,.2,.7,.3l-.2-.1,.5,.6c-.2-.3,.3-1.7,.5-2.1,.1-.3,.3-.7,.5-1,.1-.2,.2-.3,.3-.5,.1-.1,.4-.4,.2-.4l-1.1-.2c-.2-.1,0,0,0,0-.1,.1-.1,.4-.1,.5-.2,.3-.3,.4-.6,.5l1.7,2c.3-.8,.8-1.6,1.6-1.9l-.8,.1-.2-.1-.5-.6c-.1-.1,0-.2-.2,.1l2.4,1.7c.6-1,1.4-1.8,2.5-2.3l-2.1-1.5c0,.8-.4,1.5-1.2,1.7l1.5,2.3c.2-.3,.5-.4,.9-.3l-1.1-2.3c-.5,.9-.9,1.9-1.8,2.5-.4,.3-1.3,.7-1.8,.2s-.2-1.7,0-2.3c.2-.8,.6-1.7,1.3-2.1l-2.1-1.5c-.2,1.3-.7,2.5-1.6,3.4-.2,.3-.5,.5-.8,.7-.2,.1-.5,.3-.6,.4q-.2,.1,.1,.2c-.1,0-.1-.1-.1-.2,.1-.3,.1-.8,.2-1.2,.2-1.9-2.6-3-3.2-1.1h0Z"/>
      </g>
      <text class="cls-2" transform="translate(103.1 46.58)"><tspan x="0" y="0">Металл</tspan><tspan x="0" y="28">Кровля</tspan></text>
    </g>
  </g>
</svg>