<?xml version="1.0" encoding="iso-8859-1"?>
<!-- Generator: Adobe Illustrator 22.0.1, SVG Export Plug-In . SVG Version: 6.00 Build 0)  -->
<svg version="1.1" xmlns="http://www.w3.org/2000/svg" xmlns:xlink="http://www.w3.org/1999/xlink" x="0px" y="0px"
	 viewBox="0 0 128 128" style="enable-background:new 0 0 128 128;" xml:space="preserve">
<g id="_x39_">
	<path style="fill:#35455CFF;" d="M63.842,32.496c-1.684-0.044-7.669,0.849-8.72,2.336c-2.449,3.433,2.655,8.468,5.388,8.818
		c0.94,0.109,2.23-0.197,3.148-0.284c3.454-0.306,7.371-0.394,10.213-2.471c4.001-2.952,4.351-9.229,3.192-13.646
		c-0.875-3.389-2.952-7.48-5.772-9.71c-3.301-2.624-7.218-2.033-11.087-1.793c-4.242,0.284-9.163,0.219-13.011,2.121
		c-3.061,1.53-5.138,4.198-7.305,6.846c-3.914,4.723-7.239,9.907-10.257,15.242c-2.82,4.941-5.422,10.038-7.961,15.11
		C16.225,65.824,11.347,76.977,8.548,88.721c-1.465,6.059-4.438,13.646,1.749,17.319c4.898,2.908,10.016,5.379,15.307,7.436
		c9.688,3.717,19.945,6.081,30.286,6.977c20.316,1.771,42.161-1.684,59.941-12.071c7.655-4.46,12.399-11.896,12.159-20.076
		c-0.058-2.93-0.758-5.969-2.223-8.964c-6.095-12.577-32.015-15.51-35.582,1.265c-0.034,0.159-0.224,0.219-0.317,0.085
		C88.341,78.47,79.43,66.304,69.325,68.91C55.789,72.408,40.11,92.221,37.331,95.02c-1.377,1.399,8.311-13.449,8.879-21.038
		c0.306-4.067,0.044-8.223,0.241-12.312c-0.517-18.897,8.627-26.445,8.671-26.839"/>
	<path  d="M62.406,118.099c-3.471,0-6.973-0.153-10.495-0.46c-10.637-0.923-21.085-3.33-31.048-7.154
		c-5.507-2.141-10.796-4.71-15.734-7.643c-7.265-4.312-5.146-12.347-3.6-18.212c0.195-0.741,0.387-1.469,0.558-2.175
		C4.545,72.14,8.66,61.57,15.432,48.194c2.46-4.918,5.139-10.176,8.026-15.234c3.564-6.3,6.914-11.273,10.533-15.641l0.325-0.398
		c2.184-2.677,4.445-5.446,7.885-7.167c3.763-1.86,8.161-2.09,12.042-2.294c0.69-0.036,1.372-0.071,2.035-0.116l1.131-0.078
		c3.777-0.271,8.055-0.573,11.887,2.473c3.566,2.819,5.821,7.637,6.741,11.205c1.473,5.612,0.735,12.931-4.241,16.601
		c-3.181,2.324-7.07,2.637-10.502,2.913l-1.128,0.093c-0.221,0.021-0.489,0.063-0.77,0.106c-0.903,0.136-1.931,0.292-2.951,0.171
		c-2.319-0.297-5-2.194-6.712-4.57c-3.666,6.54-4.374,14.062-4.219,19.73l0.004,0.106l-0.005,0.106
		c-0.084,1.759-0.08,3.515-0.077,5.374c0.004,2.29,0.007,4.657-0.168,7.013c-0.128,1.701-0.604,3.622-1.323,5.688
		c6.161-5.891,13.71-11.816,20.94-13.685c8.73-2.245,16.375,4.356,20.535,9.068c2.653-4.955,7.599-8.132,14.148-8.927
		c10.358-1.239,21.117,3.805,24.983,11.781c1.591,3.252,2.434,6.663,2.504,10.13c0.265,9.017-4.801,17.457-13.552,22.556
		C99.064,113.634,81.221,118.097,62.406,118.099z M60.797,12.713c-0.945,0-1.943,0.07-2.989,0.145l-1.168,0.079
		c-0.677,0.046-1.385,0.083-2.102,0.12c-3.504,0.183-7.126,0.373-9.84,1.715c-2.354,1.177-4.144,3.37-6.039,5.692l-0.339,0.416
		c-3.414,4.121-6.586,8.833-9.988,14.847c-2.825,4.95-5.462,10.127-7.893,14.985c-6.571,12.98-10.548,23.171-12.902,33.05
		c-0.181,0.752-0.383,1.516-0.588,2.296c-1.61,6.104-2.343,9.955,1.04,11.962c4.674,2.776,9.685,5.21,14.893,7.234
		c9.464,3.632,19.397,5.92,29.514,6.8c21.477,1.863,42.167-2.287,58.283-11.699c6.951-4.049,10.977-10.619,10.772-17.575
		c-0.055-2.672-0.706-5.292-1.94-7.814c-2.781-5.736-11.415-9.617-19.267-8.67c-3.48,0.423-9.546,2.192-11.055,9.287
		c-0.255,1.183-1.175,2.091-2.349,2.323l-1.807,0.358l-1.212-1.588c-0.909-1.321-9.128-12.838-17.535-10.659
		C55.574,68.787,42.594,83.5,37.707,89.04c-0.967,1.097-1.693,1.914-2.124,2.349l-1.715,1.728l-2.079-1.367
		c-2.027-1.513-1.042-3.298,0.451-5.998c2.119-3.832,7.081-12.807,7.438-17.585c0.161-2.141,0.157-4.298,0.153-6.582
		c-0.004-1.812-0.007-3.684,0.078-5.549c-0.208-8.113,1.201-19.562,9.031-28.246l0.124-0.138c0.013-0.018,0.026-0.036,0.038-0.054
		c2.263-3.204,10.926-3.51,11.072-3.51c0.002,0,0.002,0,0.002,0l-0.146,5.604c-1.354-0.011-5.305,0.668-6.445,1.314
		c-0.064,0.171-0.086,0.47,0.144,1.016c0.692,1.646,2.673,3.128,3.402,3.242c0.25,0.03,0.96-0.08,1.433-0.151
		c0.389-0.058,0.761-0.113,1.091-0.144l1.192-0.099c2.823-0.227,5.743-0.462,7.633-1.843c2.71-2,3.128-6.883,2.133-10.671
		c-0.715-2.776-2.475-6.386-4.798-8.223C64.392,13.002,62.704,12.713,60.797,12.713z"/>
</g>
<g id="Layer_1">
</g>
</svg>
